<svg width="32" height="32" viewBox="0 0 32 32" fill="none" xmlns="http://www.w3.org/2000/svg">
  <path d="M16 3C16 3 8 10 8 16C8 22 16 29 16 29C16 29 24 22 24 16C24 10 16 3 16 3Z" fill="#8BC34A"/>
  <path d="M16 8C16 8 12 11 12 16C12 21 16 24 16 24C16 24 20 21 20 16C20 11 16 8 16 8Z" fill="#CDDC39"/>
  <path d="M16 13C16 13 14 15 14 16C14 17 16 19 16 19C16 19 18 17 18 16C18 15 16 13 16 13Z" fill="#FFC107"/>
  <path d="M16 3V6" stroke="#689F38" stroke-width="2" stroke-linecap="round"/>
  <path d="M20 7L22 9" stroke="#689F38" stroke-width="2" stroke-linecap="round"/>
  <path d="M22 13L24 15" stroke="#689F38" stroke-width="2" stroke-linecap="round"/>
  <path d="M22 19L24 21" stroke="#689F38" stroke-width="2" stroke-linecap="round"/>
  <path d="M20 25L22 27" stroke="#689F38" stroke-width="2" stroke-linecap="round"/>
  <path d="M16 26V29" stroke="#689F38" stroke-width="2" stroke-linecap="round"/>
  <path d="M12 25L10 27" stroke="#689F38" stroke-width="2" stroke-linecap="round"/>
  <path d="M10 19L8 21" stroke="#689F38" stroke-width="2" stroke-linecap="round"/>
  <path d="M10 13L8 15" stroke="#689F38" stroke-width="2" stroke-linecap="round"/>
  <path d="M12 7L10 9" stroke="#689F38" stroke-width="2" stroke-linecap="round"/>
</svg>